<svg width="1200" height="900" viewBox="0 0 1200 900" fill="none" xmlns="http://www.w3.org/2000/svg">
  <rect width="1200" height="900" rx="48" fill="#050816"/>
  <rect x="54" y="54" width="1092" height="792" rx="36" fill="url(#bg)"/>
  <rect x="110" y="110" width="980" height="132" rx="28" fill="rgba(255,255,255,0.05)"/>
  <rect x="110" y="292" width="428" height="498" rx="32" fill="rgba(255,255,255,0.04)" stroke="rgba(99,102,241,0.22)"/>
  <rect x="586" y="292" width="504" height="228" rx="32" fill="rgba(255,255,255,0.04)" stroke="rgba(34,211,238,0.22)"/>
  <rect x="586" y="562" width="504" height="228" rx="32" fill="rgba(255,255,255,0.04)" stroke="rgba(16,185,129,0.22)"/>
  <circle cx="334" cy="542" r="122" fill="url(#orb)"/>
  <circle cx="334" cy="542" r="74" fill="#081120"/>
  <path d="M334 420V664" stroke="#A5F3FC" stroke-width="18" stroke-linecap="round"/>
  <path d="M212 542H456" stroke="#A5F3FC" stroke-width="18" stroke-linecap="round"/>
  <path d="M654 384H1022" stroke="url(#line)" stroke-width="18" stroke-linecap="round"/>
  <path d="M654 440H950" stroke="rgba(255,255,255,0.28)" stroke-width="18" stroke-linecap="round"/>
  <path d="M654 652H960" stroke="url(#line2)" stroke-width="18" stroke-linecap="round"/>
  <path d="M654 708H884" stroke="rgba(255,255,255,0.24)" stroke-width="18" stroke-linecap="round"/>
  <defs>
    <linearGradient id="bg" x1="112" y1="96" x2="1068" y2="808" gradientUnits="userSpaceOnUse">
      <stop stop-color="#0A1530"/>
      <stop offset="1" stop-color="#071120"/>
    </linearGradient>
    <radialGradient id="orb" cx="0" cy="0" r="1" gradientUnits="userSpaceOnUse" gradientTransform="translate(334 542) rotate(90) scale(122)">
      <stop stop-color="#3B82F6"/>
      <stop offset="0.52" stop-color="#6366F1"/>
      <stop offset="1" stop-color="#22D3EE"/>
    </radialGradient>
    <linearGradient id="line" x1="654" y1="384" x2="1022" y2="384" gradientUnits="userSpaceOnUse">
      <stop stop-color="#22D3EE"/>
      <stop offset="1" stop-color="#6366F1"/>
    </linearGradient>
    <linearGradient id="line2" x1="654" y1="652" x2="960" y2="652" gradientUnits="userSpaceOnUse">
      <stop stop-color="#10B981"/>
      <stop offset="1" stop-color="#22D3EE"/>
    </linearGradient>
  </defs>
</svg>
