<svg width="1200" height="900" viewBox="0 0 1200 900" fill="none" xmlns="http://www.w3.org/2000/svg">
  <rect width="1200" height="900" rx="48" fill="#050816"/>
  <rect x="58" y="58" width="1084" height="784" rx="36" fill="url(#bg)"/>
  <rect x="124" y="120" width="952" height="120" rx="28" fill="rgba(255,255,255,0.05)"/>
  <rect x="124" y="284" width="420" height="476" rx="32" fill="rgba(255,255,255,0.04)" stroke="rgba(34,211,238,0.22)"/>
  <rect x="584" y="284" width="492" height="212" rx="32" fill="rgba(255,255,255,0.04)" stroke="rgba(99,102,241,0.22)"/>
  <rect x="584" y="548" width="492" height="212" rx="32" fill="rgba(255,255,255,0.04)" stroke="rgba(16,185,129,0.22)"/>
  <path d="M198 652C246 590.667 298 560 354 560C410 560 470 592 534 656" stroke="url(#line)" stroke-width="22" stroke-linecap="round"/>
  <circle cx="354" cy="560" r="22" fill="#22D3EE"/>
  <circle cx="454" cy="612" r="18" fill="#6366F1"/>
  <circle cx="534" cy="656" r="22" fill="#34D399"/>
  <path d="M650 384H1010" stroke="#22D3EE" stroke-width="18" stroke-linecap="round"/>
  <path d="M650 438H942" stroke="rgba(255,255,255,0.24)" stroke-width="18" stroke-linecap="round"/>
  <path d="M650 642H976" stroke="#34D399" stroke-width="18" stroke-linecap="round"/>
  <path d="M650 696H910" stroke="rgba(255,255,255,0.24)" stroke-width="18" stroke-linecap="round"/>
  <defs>
    <linearGradient id="bg" x1="120" y1="96" x2="1092" y2="816" gradientUnits="userSpaceOnUse">
      <stop stop-color="#0B1830"/>
      <stop offset="1" stop-color="#07101D"/>
    </linearGradient>
    <linearGradient id="line" x1="198" y1="560" x2="534" y2="656" gradientUnits="userSpaceOnUse">
      <stop stop-color="#22D3EE"/>
      <stop offset="0.5" stop-color="#3B82F6"/>
      <stop offset="1" stop-color="#34D399"/>
    </linearGradient>
  </defs>
</svg>
